<mxfile host="app.diagrams.net" modified="2023-10-29T20:29:04.446Z" agent="Mozilla/5.0 (Windows NT 10.0; Win64; x64) AppleWebKit/537.36 (KHTML, like Gecko) Chrome/118.0.0.0 Safari/537.36" etag="5bRp0HUtC-StS1bL7uMk" version="21.3.5" type="device">
  <diagram name="Page-1" id="Vy5V_9AVv1ckYbDrY3xL">
    <mxGraphModel dx="4097" dy="2060" grid="1" gridSize="10" guides="1" tooltips="1" connect="1" arrows="1" fold="1" page="1" pageScale="1" pageWidth="850" pageHeight="1100" math="0" shadow="0">
      <root>
        <mxCell id="0" />
        <mxCell id="1" parent="0" />
        <mxCell id="grshgtGWAKucJ6ZuGv4K-19" value="" style="group" vertex="1" connectable="0" parent="1">
          <mxGeometry x="60" y="440" width="330" height="180" as="geometry" />
        </mxCell>
        <mxCell id="grshgtGWAKucJ6ZuGv4K-17" value="" style="rounded=0;whiteSpace=wrap;html=1;" vertex="1" parent="grshgtGWAKucJ6ZuGv4K-19">
          <mxGeometry width="330" height="180" as="geometry" />
        </mxCell>
        <mxCell id="grshgtGWAKucJ6ZuGv4K-8" value="HP - Unix Server #1&lt;br&gt;HBA 1 ( NIC )&lt;br&gt;HBA 2 ( NIC )" style="rounded=0;whiteSpace=wrap;html=1;" vertex="1" parent="grshgtGWAKucJ6ZuGv4K-19">
          <mxGeometry x="45.949367088607595" y="18.367346938775512" width="242.2784810126582" height="66.12244897959185" as="geometry" />
        </mxCell>
        <mxCell id="grshgtGWAKucJ6ZuGv4K-18" value="storage controller&amp;nbsp; #1" style="shape=process;whiteSpace=wrap;html=1;backgroundOutline=1;" vertex="1" parent="grshgtGWAKucJ6ZuGv4K-19">
          <mxGeometry x="71.01265822784809" y="106.53061224489798" width="175.4430379746835" height="44.081632653061234" as="geometry" />
        </mxCell>
        <mxCell id="grshgtGWAKucJ6ZuGv4K-42" value="" style="group" vertex="1" connectable="0" parent="1">
          <mxGeometry x="760" y="440" width="330" height="180" as="geometry" />
        </mxCell>
        <mxCell id="grshgtGWAKucJ6ZuGv4K-43" value="" style="rounded=0;whiteSpace=wrap;html=1;" vertex="1" parent="grshgtGWAKucJ6ZuGv4K-42">
          <mxGeometry width="330" height="180" as="geometry" />
        </mxCell>
        <mxCell id="grshgtGWAKucJ6ZuGv4K-44" value="Windows Server #1&lt;br&gt;HBA 1 ( NIC )" style="rounded=0;whiteSpace=wrap;html=1;" vertex="1" parent="grshgtGWAKucJ6ZuGv4K-42">
          <mxGeometry x="45.949367088607595" y="18.367346938775512" width="242.2784810126582" height="66.12244897959185" as="geometry" />
        </mxCell>
        <mxCell id="grshgtGWAKucJ6ZuGv4K-45" value="storage controller&amp;nbsp; #1" style="shape=process;whiteSpace=wrap;html=1;backgroundOutline=1;" vertex="1" parent="grshgtGWAKucJ6ZuGv4K-42">
          <mxGeometry x="71.01265822784809" y="106.53061224489798" width="175.4430379746835" height="44.081632653061234" as="geometry" />
        </mxCell>
        <mxCell id="grshgtGWAKucJ6ZuGv4K-46" value="" style="group" vertex="1" connectable="0" parent="1">
          <mxGeometry x="410" y="440" width="330" height="180" as="geometry" />
        </mxCell>
        <mxCell id="grshgtGWAKucJ6ZuGv4K-47" value="" style="rounded=0;whiteSpace=wrap;html=1;" vertex="1" parent="grshgtGWAKucJ6ZuGv4K-46">
          <mxGeometry width="330" height="180" as="geometry" />
        </mxCell>
        <mxCell id="grshgtGWAKucJ6ZuGv4K-48" value="Linux Server #1&lt;br&gt;HBA 1 ( NIC )&lt;br&gt;HBA 2 ( NIC )" style="rounded=0;whiteSpace=wrap;html=1;" vertex="1" parent="grshgtGWAKucJ6ZuGv4K-46">
          <mxGeometry x="45.949367088607595" y="18.367346938775512" width="242.2784810126582" height="66.12244897959185" as="geometry" />
        </mxCell>
        <mxCell id="grshgtGWAKucJ6ZuGv4K-49" value="storage controller&amp;nbsp; #1" style="shape=process;whiteSpace=wrap;html=1;backgroundOutline=1;" vertex="1" parent="grshgtGWAKucJ6ZuGv4K-46">
          <mxGeometry x="71.01265822784809" y="106.53061224489798" width="175.4430379746835" height="44.081632653061234" as="geometry" />
        </mxCell>
        <mxCell id="grshgtGWAKucJ6ZuGv4K-50" value="" style="group" vertex="1" connectable="0" parent="1">
          <mxGeometry x="59" y="870" width="330" height="180" as="geometry" />
        </mxCell>
        <mxCell id="grshgtGWAKucJ6ZuGv4K-51" value="" style="rounded=0;whiteSpace=wrap;html=1;" vertex="1" parent="grshgtGWAKucJ6ZuGv4K-50">
          <mxGeometry width="330" height="180" as="geometry" />
        </mxCell>
        <mxCell id="grshgtGWAKucJ6ZuGv4K-52" value="HP - Unix Server #3&lt;br&gt;HBA 1 ( NIC )&lt;br&gt;HBA 2 ( NIC )" style="rounded=0;whiteSpace=wrap;html=1;" vertex="1" parent="grshgtGWAKucJ6ZuGv4K-50">
          <mxGeometry x="45.949367088607595" y="18.367346938775512" width="242.2784810126582" height="66.12244897959185" as="geometry" />
        </mxCell>
        <mxCell id="grshgtGWAKucJ6ZuGv4K-53" value="storage controller&amp;nbsp; #3" style="shape=process;whiteSpace=wrap;html=1;backgroundOutline=1;" vertex="1" parent="grshgtGWAKucJ6ZuGv4K-50">
          <mxGeometry x="71.01265822784809" y="106.53061224489798" width="175.4430379746835" height="44.081632653061234" as="geometry" />
        </mxCell>
        <mxCell id="grshgtGWAKucJ6ZuGv4K-54" value="" style="group" vertex="1" connectable="0" parent="1">
          <mxGeometry x="59" y="650" width="330" height="180" as="geometry" />
        </mxCell>
        <mxCell id="grshgtGWAKucJ6ZuGv4K-55" value="" style="rounded=0;whiteSpace=wrap;html=1;" vertex="1" parent="grshgtGWAKucJ6ZuGv4K-54">
          <mxGeometry width="330" height="180" as="geometry" />
        </mxCell>
        <mxCell id="grshgtGWAKucJ6ZuGv4K-56" value="HP - Unix Server #2&lt;br&gt;HBA 1 ( NIC )&lt;br&gt;HBA 2 ( NIC )" style="rounded=0;whiteSpace=wrap;html=1;" vertex="1" parent="grshgtGWAKucJ6ZuGv4K-54">
          <mxGeometry x="45.949367088607595" y="18.367346938775512" width="242.2784810126582" height="66.12244897959185" as="geometry" />
        </mxCell>
        <mxCell id="grshgtGWAKucJ6ZuGv4K-57" value="storage controller&amp;nbsp; #2" style="shape=process;whiteSpace=wrap;html=1;backgroundOutline=1;" vertex="1" parent="grshgtGWAKucJ6ZuGv4K-54">
          <mxGeometry x="71.01265822784809" y="106.53061224489798" width="175.4430379746835" height="44.081632653061234" as="geometry" />
        </mxCell>
        <mxCell id="grshgtGWAKucJ6ZuGv4K-58" value="" style="group" vertex="1" connectable="0" parent="1">
          <mxGeometry x="59" y="1090" width="330" height="180" as="geometry" />
        </mxCell>
        <mxCell id="grshgtGWAKucJ6ZuGv4K-59" value="" style="rounded=0;whiteSpace=wrap;html=1;" vertex="1" parent="grshgtGWAKucJ6ZuGv4K-58">
          <mxGeometry width="330" height="180" as="geometry" />
        </mxCell>
        <mxCell id="grshgtGWAKucJ6ZuGv4K-60" value="HP - Unix Server #4&lt;br&gt;HBA 1 ( NIC )&lt;br&gt;HBA 2 ( NIC )" style="rounded=0;whiteSpace=wrap;html=1;" vertex="1" parent="grshgtGWAKucJ6ZuGv4K-58">
          <mxGeometry x="45.949367088607595" y="18.367346938775512" width="242.2784810126582" height="66.12244897959185" as="geometry" />
        </mxCell>
        <mxCell id="grshgtGWAKucJ6ZuGv4K-61" value="storage controller&amp;nbsp; #4" style="shape=process;whiteSpace=wrap;html=1;backgroundOutline=1;" vertex="1" parent="grshgtGWAKucJ6ZuGv4K-58">
          <mxGeometry x="71.01265822784809" y="106.53061224489798" width="175.4430379746835" height="44.081632653061234" as="geometry" />
        </mxCell>
        <mxCell id="grshgtGWAKucJ6ZuGv4K-62" value="" style="group" vertex="1" connectable="0" parent="1">
          <mxGeometry x="410" y="650" width="330" height="180" as="geometry" />
        </mxCell>
        <mxCell id="grshgtGWAKucJ6ZuGv4K-63" value="" style="rounded=0;whiteSpace=wrap;html=1;" vertex="1" parent="grshgtGWAKucJ6ZuGv4K-62">
          <mxGeometry width="330" height="180" as="geometry" />
        </mxCell>
        <mxCell id="grshgtGWAKucJ6ZuGv4K-64" value="Linux Server #2&lt;br&gt;HBA 1 ( NIC )&lt;br&gt;HBA 2 ( NIC )" style="rounded=0;whiteSpace=wrap;html=1;" vertex="1" parent="grshgtGWAKucJ6ZuGv4K-62">
          <mxGeometry x="45.949367088607595" y="18.367346938775512" width="242.2784810126582" height="66.12244897959185" as="geometry" />
        </mxCell>
        <mxCell id="grshgtGWAKucJ6ZuGv4K-65" value="storage controller&amp;nbsp; #2" style="shape=process;whiteSpace=wrap;html=1;backgroundOutline=1;" vertex="1" parent="grshgtGWAKucJ6ZuGv4K-62">
          <mxGeometry x="71.01265822784809" y="106.53061224489798" width="175.4430379746835" height="44.081632653061234" as="geometry" />
        </mxCell>
        <mxCell id="grshgtGWAKucJ6ZuGv4K-66" value="" style="group" vertex="1" connectable="0" parent="1">
          <mxGeometry x="410" y="870" width="330" height="180" as="geometry" />
        </mxCell>
        <mxCell id="grshgtGWAKucJ6ZuGv4K-67" value="" style="rounded=0;whiteSpace=wrap;html=1;" vertex="1" parent="grshgtGWAKucJ6ZuGv4K-66">
          <mxGeometry width="330" height="180" as="geometry" />
        </mxCell>
        <mxCell id="grshgtGWAKucJ6ZuGv4K-68" value="Linux Server #3&lt;br&gt;HBA 1 ( NIC )&lt;br&gt;HBA 2 ( NIC )" style="rounded=0;whiteSpace=wrap;html=1;" vertex="1" parent="grshgtGWAKucJ6ZuGv4K-66">
          <mxGeometry x="45.949367088607595" y="18.367346938775512" width="242.2784810126582" height="66.12244897959185" as="geometry" />
        </mxCell>
        <mxCell id="grshgtGWAKucJ6ZuGv4K-69" value="storage controller&amp;nbsp; #3" style="shape=process;whiteSpace=wrap;html=1;backgroundOutline=1;" vertex="1" parent="grshgtGWAKucJ6ZuGv4K-66">
          <mxGeometry x="71.01265822784809" y="106.53061224489798" width="175.4430379746835" height="44.081632653061234" as="geometry" />
        </mxCell>
        <mxCell id="grshgtGWAKucJ6ZuGv4K-71" value="" style="group" vertex="1" connectable="0" parent="1">
          <mxGeometry x="760" y="650" width="330" height="180" as="geometry" />
        </mxCell>
        <mxCell id="grshgtGWAKucJ6ZuGv4K-72" value="" style="rounded=0;whiteSpace=wrap;html=1;" vertex="1" parent="grshgtGWAKucJ6ZuGv4K-71">
          <mxGeometry width="330" height="180" as="geometry" />
        </mxCell>
        <mxCell id="grshgtGWAKucJ6ZuGv4K-73" value="Windows Server #2&lt;br&gt;HBA 1 ( NIC )" style="rounded=0;whiteSpace=wrap;html=1;" vertex="1" parent="grshgtGWAKucJ6ZuGv4K-71">
          <mxGeometry x="45.949367088607595" y="18.367346938775512" width="242.2784810126582" height="66.12244897959185" as="geometry" />
        </mxCell>
        <mxCell id="grshgtGWAKucJ6ZuGv4K-74" value="storage controller&amp;nbsp; #2" style="shape=process;whiteSpace=wrap;html=1;backgroundOutline=1;" vertex="1" parent="grshgtGWAKucJ6ZuGv4K-71">
          <mxGeometry x="71.01265822784809" y="106.53061224489798" width="175.4430379746835" height="44.081632653061234" as="geometry" />
        </mxCell>
        <mxCell id="grshgtGWAKucJ6ZuGv4K-87" value="" style="group" vertex="1" connectable="0" parent="1">
          <mxGeometry x="56" y="1340" width="1030" height="190" as="geometry" />
        </mxCell>
        <mxCell id="grshgtGWAKucJ6ZuGv4K-75" value="" style="rounded=0;whiteSpace=wrap;html=1;" vertex="1" parent="grshgtGWAKucJ6ZuGv4K-87">
          <mxGeometry width="1030" height="190" as="geometry" />
        </mxCell>
        <mxCell id="grshgtGWAKucJ6ZuGv4K-84" value="&lt;font color=&quot;#dbdbdb&quot; style=&quot;font-size: 23px;&quot;&gt;20 TB storage Array&amp;nbsp;&lt;/font&gt;" style="text;strokeColor=none;fillColor=none;align=center;verticalAlign=middle;spacingLeft=4;spacingRight=4;overflow=hidden;points=[[0,0.5],[1,0.5]];portConstraint=eastwest;rotatable=0;whiteSpace=wrap;html=1;" vertex="1" parent="grshgtGWAKucJ6ZuGv4K-87">
          <mxGeometry x="335" y="17" width="380" height="60" as="geometry" />
        </mxCell>
        <mxCell id="grshgtGWAKucJ6ZuGv4K-85" value="" style="group" vertex="1" connectable="0" parent="grshgtGWAKucJ6ZuGv4K-87">
          <mxGeometry x="40" y="96" width="900" height="61" as="geometry" />
        </mxCell>
        <mxCell id="grshgtGWAKucJ6ZuGv4K-77" value="Drive 1&lt;br&gt;DATA 5TB" style="rounded=0;whiteSpace=wrap;html=1;" vertex="1" parent="grshgtGWAKucJ6ZuGv4K-85">
          <mxGeometry y="5.545454545454545" width="191.48936170212767" height="55.45454545454545" as="geometry" />
        </mxCell>
        <mxCell id="grshgtGWAKucJ6ZuGv4K-81" value="Drive 4&lt;br&gt;Parity %tb" style="rounded=0;whiteSpace=wrap;html=1;" vertex="1" parent="grshgtGWAKucJ6ZuGv4K-85">
          <mxGeometry x="708.5106382978723" width="191.48936170212767" height="55.45454545454545" as="geometry" />
        </mxCell>
        <mxCell id="grshgtGWAKucJ6ZuGv4K-82" value="Drive 3&lt;br&gt;Parity 5TB" style="rounded=0;whiteSpace=wrap;html=1;" vertex="1" parent="grshgtGWAKucJ6ZuGv4K-85">
          <mxGeometry x="469.1489361702128" y="4.313131313131313" width="191.48936170212767" height="55.45454545454545" as="geometry" />
        </mxCell>
        <mxCell id="grshgtGWAKucJ6ZuGv4K-83" value="Drive 2&lt;br&gt;Data % TB" style="rounded=0;whiteSpace=wrap;html=1;" vertex="1" parent="grshgtGWAKucJ6ZuGv4K-85">
          <mxGeometry x="229.7872340425532" y="4.313131313131313" width="191.48936170212767" height="55.45454545454545" as="geometry" />
        </mxCell>
        <mxCell id="grshgtGWAKucJ6ZuGv4K-2" value="Data Center" style="rounded=0;whiteSpace=wrap;html=1;" vertex="1" parent="1">
          <mxGeometry x="394.2307692307692" y="20" width="321.53846153846155" height="85.80645161290323" as="geometry" />
        </mxCell>
        <mxCell id="grshgtGWAKucJ6ZuGv4K-3" value="" style="rounded=0;whiteSpace=wrap;html=1;" vertex="1" parent="1">
          <mxGeometry x="270" y="158.0967741935484" width="570" height="232.90322580645162" as="geometry" />
        </mxCell>
        <mxCell id="grshgtGWAKucJ6ZuGv4K-5" value="48 port Switch #1&lt;br&gt;[4/48]" style="rounded=0;whiteSpace=wrap;html=1;" vertex="1" parent="1">
          <mxGeometry x="321.1538461538462" y="191.1935483870968" width="467.69230769230774" height="73.5483870967742" as="geometry" />
        </mxCell>
        <mxCell id="grshgtGWAKucJ6ZuGv4K-6" value="48 port Switch #2&lt;br&gt;[4/48]" style="rounded=0;whiteSpace=wrap;html=1;" vertex="1" parent="1">
          <mxGeometry x="321.1538461538462" y="289.258064516129" width="467.69230769230774" height="73.5483870967742" as="geometry" />
        </mxCell>
      </root>
    </mxGraphModel>
  </diagram>
</mxfile>
